<mxfile host="app.diagrams.net" modified="2021-12-23T13:40:25.963Z" agent="5.0 (Macintosh; Intel Mac OS X 10_15_7) AppleWebKit/537.36 (KHTML, like Gecko) Chrome/96.0.4664.110 Safari/537.36" etag="SeIau1wTgBkmMdtGrC1v" version="15.9.6" type="github">
  <diagram id="V_m77jtQSvYKdSpdfSJf" name="Page-1">
    <mxGraphModel dx="2066" dy="1058" grid="0" gridSize="10" guides="1" tooltips="1" connect="1" arrows="1" fold="1" page="1" pageScale="1" pageWidth="10000" pageHeight="20000" math="0" shadow="0">
      <root>
        <mxCell id="0" />
        <mxCell id="1" parent="0" />
        <mxCell id="AzjwFO_XxzHECCLyyzzz-7" value="" style="rounded=0;orthogonalLoop=1;jettySize=auto;html=1;entryX=0;entryY=0;entryDx=0;entryDy=0;" edge="1" parent="1" source="AzjwFO_XxzHECCLyyzzz-1" target="AzjwFO_XxzHECCLyyzzz-15">
          <mxGeometry relative="1" as="geometry">
            <mxPoint x="418.75" y="442" as="targetPoint" />
          </mxGeometry>
        </mxCell>
        <mxCell id="AzjwFO_XxzHECCLyyzzz-1" value="点击分享" style="ellipse;whiteSpace=wrap;html=1;aspect=fixed;fillColor=#e1d5e7;strokeColor=#9673a6;" vertex="1" parent="1">
          <mxGeometry x="382" y="317" width="75" height="75" as="geometry" />
        </mxCell>
        <mxCell id="AzjwFO_XxzHECCLyyzzz-8" value="" style="edgeStyle=orthogonalEdgeStyle;rounded=0;orthogonalLoop=1;jettySize=auto;html=1;" edge="1" parent="1" source="AzjwFO_XxzHECCLyyzzz-4" target="AzjwFO_XxzHECCLyyzzz-5">
          <mxGeometry relative="1" as="geometry" />
        </mxCell>
        <mxCell id="AzjwFO_XxzHECCLyyzzz-4" value="分享口令" style="rounded=0;whiteSpace=wrap;html=1;fillColor=#d5e8d4;strokeColor=#82b366;" vertex="1" parent="1">
          <mxGeometry x="353" y="526" width="132" height="52" as="geometry" />
        </mxCell>
        <mxCell id="AzjwFO_XxzHECCLyyzzz-19" value="" style="edgeStyle=none;rounded=0;orthogonalLoop=1;jettySize=auto;html=1;strokeWidth=1;entryX=0;entryY=1;entryDx=0;entryDy=0;" edge="1" parent="1" source="AzjwFO_XxzHECCLyyzzz-5" target="AzjwFO_XxzHECCLyyzzz-15">
          <mxGeometry relative="1" as="geometry" />
        </mxCell>
        <mxCell id="AzjwFO_XxzHECCLyyzzz-5" value="复制喵口令，打开手猫" style="rounded=0;whiteSpace=wrap;html=1;fillColor=#dae8fc;strokeColor=#6c8ebf;" vertex="1" parent="1">
          <mxGeometry x="350" y="623" width="138" height="54" as="geometry" />
        </mxCell>
        <mxCell id="AzjwFO_XxzHECCLyyzzz-6" value="进入端内承接页" style="rounded=0;whiteSpace=wrap;html=1;fillColor=#f8cecc;strokeColor=#b85450;" vertex="1" parent="1">
          <mxGeometry x="350" y="807" width="138" height="60" as="geometry" />
        </mxCell>
        <mxCell id="AzjwFO_XxzHECCLyyzzz-12" value="" style="edgeStyle=none;rounded=0;orthogonalLoop=1;jettySize=auto;html=1;exitX=0.831;exitY=-0.167;exitDx=0;exitDy=0;startArrow=none;exitPerimeter=0;entryX=0.5;entryY=0;entryDx=0;entryDy=0;" edge="1" parent="1" target="AzjwFO_XxzHECCLyyzzz-4">
          <mxGeometry relative="1" as="geometry">
            <mxPoint x="601.9589999999998" y="448.99" as="sourcePoint" />
          </mxGeometry>
        </mxCell>
        <mxCell id="AzjwFO_XxzHECCLyyzzz-30" value="生成口令" style="edgeLabel;html=1;align=center;verticalAlign=middle;resizable=0;points=[];" vertex="1" connectable="0" parent="AzjwFO_XxzHECCLyyzzz-12">
          <mxGeometry x="-0.2037" y="-3" relative="1" as="geometry">
            <mxPoint x="30" y="-10" as="offset" />
          </mxGeometry>
        </mxCell>
        <mxCell id="AzjwFO_XxzHECCLyyzzz-25" value="" style="edgeStyle=none;rounded=0;orthogonalLoop=1;jettySize=auto;html=1;strokeWidth=1;entryX=0.5;entryY=0;entryDx=0;entryDy=0;startArrow=none;" edge="1" parent="1" target="AzjwFO_XxzHECCLyyzzz-6">
          <mxGeometry relative="1" as="geometry">
            <mxPoint x="599" y="757" as="sourcePoint" />
          </mxGeometry>
        </mxCell>
        <mxCell id="AzjwFO_XxzHECCLyyzzz-31" value="解析口令" style="edgeLabel;html=1;align=center;verticalAlign=middle;resizable=0;points=[];" vertex="1" connectable="0" parent="AzjwFO_XxzHECCLyyzzz-25">
          <mxGeometry x="-0.5765" relative="1" as="geometry">
            <mxPoint x="19" y="1" as="offset" />
          </mxGeometry>
        </mxCell>
        <mxCell id="AzjwFO_XxzHECCLyyzzz-15" value="" style="rounded=0;whiteSpace=wrap;html=1;dashed=1;dashPattern=1 2;" vertex="1" parent="1">
          <mxGeometry x="601" y="448" width="124" height="309" as="geometry" />
        </mxCell>
        <mxCell id="AzjwFO_XxzHECCLyyzzz-17" value="" style="edgeStyle=none;rounded=0;orthogonalLoop=1;jettySize=auto;html=1;strokeWidth=1;" edge="1" parent="1" source="AzjwFO_XxzHECCLyyzzz-16" target="AzjwFO_XxzHECCLyyzzz-1">
          <mxGeometry relative="1" as="geometry" />
        </mxCell>
        <mxCell id="AzjwFO_XxzHECCLyyzzz-16" value="" style="shape=umlActor;verticalLabelPosition=bottom;verticalAlign=top;html=1;outlineConnect=0;" vertex="1" parent="1">
          <mxGeometry x="404.5" y="187" width="30" height="60" as="geometry" />
        </mxCell>
        <mxCell id="AzjwFO_XxzHECCLyyzzz-28" value="&lt;span&gt;应用：sharepassword&lt;/span&gt;" style="rounded=0;whiteSpace=wrap;html=1;fillColor=#fff2cc;strokeColor=#d6b656;" vertex="1" parent="1">
          <mxGeometry x="608" y="569" width="108" height="63" as="geometry" />
        </mxCell>
        <mxCell id="AzjwFO_XxzHECCLyyzzz-32" value="" style="endArrow=none;dashed=1;html=1;dashPattern=1 3;strokeWidth=1;rounded=0;" edge="1" parent="1">
          <mxGeometry width="50" height="50" relative="1" as="geometry">
            <mxPoint x="537" y="881" as="sourcePoint" />
            <mxPoint x="530" y="142" as="targetPoint" />
          </mxGeometry>
        </mxCell>
      </root>
    </mxGraphModel>
  </diagram>
</mxfile>
